<svg width="50" height="50" xmlns="http://www.w3.org/2000/svg" xmlns:xlink="http://www.w3.org/1999/xlink"><defs><path d="M32 22.8a4.8 4.8 0 1 0 0-9.6 4.8 4.8 0 0 0 0 9.6zm0 2.4a7.2 7.2 0 0 1-7.2-7.2 7.2 7.2 0 0 1 7.2-7.2 7.2 7.2 0 0 1 7.2 7.2 7.2 7.2 0 0 1-7.2 7.2zM18.263 43.134L1.173 26.869a1.2 1.2 0 1 1 1.654-1.738l15.436 14.69 8.443-8.034 16.121 15.344a1.2 1.2 0 1 1-1.654 1.738L26.705 35.1l-8.442 8.034z" id="a"/><path d="M8 2.4A5.6 5.6 0 0 0 2.4 8v34A5.6 5.6 0 0 0 8 47.6h34a5.6 5.6 0 0 0 5.6-5.6V8A5.6 5.6 0 0 0 42 2.4H8zM8 0h34a8 8 0 0 1 8 8v34a8 8 0 0 1-8 8H8a8 8 0 0 1-8-8V8a8 8 0 0 1 8-8z" id="c"/></defs><g fill="none" fill-rule="evenodd"><mask id="b" fill="#fff"><use xlink:href="#a"/></mask><use fill="#455065" fill-rule="nonzero" xlink:href="#a"/><g mask="url(#b)" fill="#687089"><path d="M0 0h50v50H0z"/></g><mask id="d" fill="#fff"><use xlink:href="#c"/></mask><use fill="#455065" fill-rule="nonzero" xlink:href="#c"/><g mask="url(#d)" fill="#687089"><path d="M0 0h50v50H0z"/></g></g></svg>